<?xml version="1.0" standalone="no"?>
<!DOCTYPE svg PUBLIC "-//W3C//DTD SVG 20010904//EN"
 "http://www.w3.org/TR/2001/REC-SVG-20010904/DTD/svg10.dtd">
<svg version="1.0" xmlns="http://www.w3.org/2000/svg"
 width="220.000000pt" height="220.000000pt" viewBox="0 0 220.000000 220.000000"
 preserveAspectRatio="xMidYMid meet">
<metadata>
Created by potrace 1.11, written by Peter Selinger 2001-2013
</metadata>
<g transform="translate(0.000000,220.000000) scale(0.100000,-0.100000)"
fill="#000000" stroke="none">
<path d="M880 2180 c-139 -30 -286 -92 -401 -170 -72 -50 -213 -190 -271 -271
-133 -187 -198 -394 -198 -634 0 -238 61 -441 187 -621 63 -90 202 -231 282
-284 91 -61 255 -137 347 -160 205 -53 458 -43 642 26 168 64 290 142 412 263
218 220 320 465 320 776 0 307 -106 560 -324 777 -161 160 -339 254 -574 303
-102 21 -312 18 -422 -5z m357 -171 c444 -61 782 -452 783 -905 0 -264 -132
-547 -328 -703 -75 -60 -187 -127 -257 -154 -199 -76 -461 -76 -661 1 -56 21
-191 99 -239 138 l-30 24 87 0 88 0 2 500 3 499 157 -197 158 -197 0 -302 0
-303 95 0 95 0 2 180 3 179 143 -179 144 -180 89 0 89 0 0 685 0 685 -585 0
-585 0 -2 -677 -3 -678 -43 45 c-155 161 -252 406 -252 634 1 558 490 982
1047 905z m-237 -550 l0 -141 -101 128 c-56 71 -106 135 -112 142 -7 9 14 12
102 12 l111 0 0 -141z m450 -281 c0 -357 -2 -420 -14 -408 -7 8 -66 81 -130
161 l-116 146 0 262 0 261 130 0 130 0 0 -422z"/>
</g>
</svg>
